<?xml version="1.0" standalone="no"?>
<!DOCTYPE svg PUBLIC "-//W3C//DTD SVG 20010904//EN"
 "http://www.w3.org/TR/2001/REC-SVG-20010904/DTD/svg10.dtd">
<svg version="1.0" xmlns="http://www.w3.org/2000/svg"
 width="300.000000pt" height="150.000000pt" viewBox="0 0 300.000000 150.000000"
 preserveAspectRatio="xMidYMid meet">

<g transform="translate(0.000000,150.000000) scale(0.100000,-0.100000)"
fill="#000000" stroke="none">
<path d="M438 1213 c6 -2 18 -2 25 0 6 3 1 5 -13 5 -14 0 -19 -2 -12 -5z"/>
<path d="M486 1203 c-8 -21 -1 -27 17 -16 12 6 13 10 2 20 -10 10 -15 9 -19
-4z"/>
<path d="M518 1213 c6 -2 18 -2 25 0 6 3 1 5 -13 5 -14 0 -19 -2 -12 -5z"/>
<path d="M368 1203 c7 -3 16 -2 19 1 4 3 -2 6 -13 5 -11 0 -14 -3 -6 -6z"/>
<path d="M445 1190 c-3 -5 -1 -10 4 -10 6 0 11 5 11 10 0 6 -2 10 -4 10 -3 0
-8 -4 -11 -10z"/>
<path d="M550 1190 c0 -5 5 -10 11 -10 5 0 7 5 4 10 -3 6 -8 10 -11 10 -2 0
-4 -4 -4 -10z"/>
<path d="M603 1193 c-18 -7 -16 -20 2 -20 8 0 12 4 9 8 -2 4 2 10 8 12 7 3 9
5 3 5 -5 0 -16 -2 -22 -5z"/>
<path d="M290 1180 c-8 -5 -10 -10 -5 -10 6 0 17 5 25 10 8 5 11 10 5 10 -5 0
-17 -5 -25 -10z"/>
<path d="M326 1172 c-2 -4 4 -9 15 -9 10 -1 19 2 19 8 0 11 -27 12 -34 1z"/>
<path d="M230 1120 c-13 -8 -13 -10 2 -10 9 0 20 5 23 10 8 13 -5 13 -25 0z"/>
<path d="M460 1122 c0 -4 10 -13 23 -21 22 -14 22 -14 3 8 -20 22 -26 25 -26
13z"/>
<path d="M528 1105 c-3 -14 -1 -25 3 -25 5 0 9 11 9 25 0 14 -2 25 -4 25 -2 0
-6 -11 -8 -25z"/>
<path d="M196 1107 c3 -10 9 -15 12 -12 3 3 0 11 -7 18 -10 9 -11 8 -5 -6z"/>
<path d="M388 1095 c2 -14 6 -25 8 -25 2 0 4 11 4 25 0 14 -4 25 -9 25 -4 0
-6 -11 -3 -25z"/>
<path d="M746 1107 c3 -10 9 -15 12 -12 3 3 0 11 -7 18 -10 9 -11 8 -5 -6z"/>
<path d="M159 1093 c-13 -16 -12 -17 4 -4 16 13 21 21 13 21 -2 0 -10 -8 -17
-17z"/>
<path d="M592 1085 c0 -16 2 -22 5 -12 2 9 2 23 0 30 -3 6 -5 -1 -5 -18z"/>
<path d="M340 1092 c0 -5 7 -15 15 -22 8 -7 15 -8 15 -2 0 5 -7 15 -15 22 -8
7 -15 8 -15 2z"/>
<path d="M636 1075 c-9 -26 -7 -32 5 -12 6 10 9 21 6 23 -2 3 -7 -2 -11 -11z"/>
<path d="M800 1086 c0 -2 8 -10 18 -17 15 -13 16 -12 3 4 -13 16 -21 21 -21
13z"/>
<path d="M281 1075 c0 -5 6 -19 14 -29 8 -11 15 -15 15 -10 0 6 -7 19 -15 30
-8 10 -14 15 -14 9z"/>
<path d="M780 1071 c0 -10 19 -25 25 -20 1 2 -3 10 -11 17 -8 7 -14 8 -14 3z"/>
<path d="M680 1055 c-7 -9 -10 -18 -7 -21 3 -3 10 4 17 15 13 25 8 27 -10 6z"/>
<path d="M474 1033 c6 -16 -39 -19 -49 -3 -3 6 -11 10 -17 10 -7 0 -6 -6 2
-15 8 -9 9 -15 2 -15 -6 0 -14 5 -17 10 -3 6 -14 10 -23 10 -16 -1 -16 -1 1
-11 26 -15 20 -30 -7 -17 -14 6 -33 7 -43 3 -14 -6 -10 -10 22 -20 34 -10 43
-9 58 3 19 17 21 10 8 -35 -7 -25 -6 -35 7 -45 14 -11 15 -10 9 6 -5 11 -1 28
8 42 9 14 11 25 5 29 -22 13 -9 27 19 22 21 -4 31 -2 35 9 9 24 7 31 -9 31 -9
0 -14 -6 -11 -14z"/>
<path d="M1158 1043 c12 -2 32 -2 45 0 12 2 2 4 -23 4 -25 0 -35 -2 -22 -4z"/>
<path d="M1291 1033 c0 -10 3 -13 6 -5 7 17 51 15 56 -3 4 -11 4 -10 3 2 -2
26 -66 32 -65 6z"/>
<path d="M1381 1028 c1 -16 3 -18 6 -6 2 9 14 19 26 21 18 4 17 5 -5 6 -23 1
-28 -3 -27 -21z"/>
<path d="M1460 1046 c0 -2 11 -6 25 -8 13 -3 22 -1 19 3 -5 9 -44 13 -44 5z"/>
<path d="M1531 1033 c0 -10 3 -13 6 -5 7 17 51 15 56 -3 4 -11 4 -10 3 2 -2
26 -66 32 -65 6z"/>
<path d="M1649 1033 c-13 -17 -13 -17 6 -3 11 8 22 16 24 17 2 2 0 3 -6 3 -6
0 -17 -8 -24 -17z"/>
<path d="M1891 1047 c2 -1 13 -9 24 -17 19 -14 19 -14 6 3 -7 9 -18 17 -24 17
-6 0 -8 -1 -6 -3z"/>
<path d="M1954 1037 c-2 -7 -3 -60 -1 -118 l3 -104 2 112 2 112 38 4 37 4 -38
1 c-23 1 -40 -3 -43 -11z"/>
<path d="M2084 1037 c-2 -7 -3 -60 -1 -118 l3 -104 2 112 c2 107 3 112 25 116
l22 4 -23 2 c-12 0 -25 -5 -28 -12z"/>
<path d="M2198 1043 c57 -4 74 -29 25 -35 -21 -2 -28 -9 -29 -26 -1 -17 -1
-18 3 -3 3 13 14 21 31 23 19 2 27 9 27 23 0 17 -7 20 -55 21 l-55 1 53 -4z"/>
<path d="M2270 1046 c0 -2 14 -6 30 -8 17 -3 30 -1 30 4 0 4 -13 8 -30 8 -16
0 -30 -2 -30 -4z"/>
<path d="M2340 1025 c-6 -15 -6 -34 0 -47 7 -19 9 -16 9 19 1 35 5 42 24 46
l22 4 -23 2 c-15 1 -25 -7 -32 -24z"/>
<path d="M2455 1043 c38 -3 55 -8 55 -18 0 -7 -8 -16 -17 -18 -13 -3 -12 -5 5
-6 19 -1 23 3 20 22 -3 20 -9 22 -61 23 l-57 1 55 -4z"/>
<path d="M2553 1043 c9 -2 25 -2 35 0 9 3 1 5 -18 5 -19 0 -27 -2 -17 -5z"/>
<path d="M2644 1037 c-2 -7 -3 -60 -1 -118 l3 -104 2 112 c2 107 3 112 25 116
l22 4 -23 2 c-12 0 -25 -5 -28 -12z"/>
<path d="M99 1023 c-10 -11 -10 -14 -1 -9 7 4 12 1 12 -9 0 -9 5 -13 10 -10 8
5 8 11 1 19 -6 7 -8 16 -4 19 3 4 4 7 1 7 -3 0 -12 -8 -19 -17z"/>
<path d="M545 1030 c-3 -5 -16 -10 -28 -11 -21 0 -21 -1 -2 -9 17 -7 17 -9 3
-9 -10 -1 -18 -6 -18 -12 0 -6 6 -9 13 -6 8 3 14 -1 14 -8 0 -7 -6 -11 -14 -8
-8 3 -13 -3 -14 -18 0 -13 -3 -18 -6 -11 -2 6 -9 12 -14 12 -4 0 -7 -6 -5 -12
1 -7 1 -10 -1 -5 -3 4 -14 7 -26 7 -20 0 -19 -2 7 -29 l27 -29 32 29 c31 29
50 32 27 4 -14 -17 0 -21 17 -4 8 8 8 20 1 41 -9 24 -8 32 3 39 8 4 23 15 34
23 17 13 18 15 3 16 -9 0 -20 -4 -23 -10 -3 -5 -11 -10 -17 -10 -7 0 -6 6 2
15 8 9 9 15 2 15 -6 0 -14 -4 -17 -10z"/>
<path d="M1236 1027 c3 -10 9 -15 12 -12 3 3 0 11 -7 18 -10 9 -11 8 -5 -6z"/>
<path d="M210 1026 c0 -2 14 -6 30 -8 17 -3 30 -1 30 4 0 4 -13 8 -30 8 -16 0
-30 -2 -30 -4z"/>
<path d="M1741 1004 c0 -11 3 -14 6 -6 3 7 2 16 -1 19 -3 4 -6 -2 -5 -13z"/>
<path d="M2531 1004 c0 -11 3 -14 6 -6 3 7 2 16 -1 19 -3 4 -6 -2 -5 -13z"/>
<path d="M594 998 c-19 -9 -20 -13 -10 -40 10 -27 8 -32 -20 -56 -17 -15 -39
-32 -50 -39 -19 -11 -19 -11 1 -27 28 -22 37 -20 25 7 -11 21 -10 21 4 3 9
-11 16 -28 16 -39 0 -10 4 -16 8 -13 5 3 25 -23 45 -57 l38 -62 -3 92 c-2 51
1 88 6 84 4 -5 6 -50 5 -100 -4 -81 -7 -93 -29 -113 -20 -19 -21 -19 -7 -2 18
21 23 44 9 44 -4 0 -18 20 -32 45 -23 41 -49 64 -37 31 3 -8 -1 -20 -9 -27 -8
-7 -11 -15 -6 -18 9 -6 32 -66 32 -82 0 -5 -4 -9 -10 -9 -5 0 -14 18 -20 40
-6 22 -16 40 -23 39 -21 -2 -63 -17 -49 -18 14 -1 16 -49 3 -70 -7 -11 -11
-10 -20 7 -6 11 -11 30 -11 41 0 12 -4 21 -10 21 -5 0 -10 7 -10 16 0 9 23 26
56 41 54 25 71 43 22 24 -23 -8 -24 -7 -21 14 3 12 0 26 -6 29 -6 4 -11 18
-11 31 0 19 -10 30 -40 45 -29 15 -42 29 -48 53 -7 27 -14 33 -51 41 -34 7
-45 6 -59 -7 -15 -16 -13 -17 24 -17 22 0 49 -7 60 -15 18 -14 18 -14 -11 -15
-20 0 -26 3 -17 9 8 5 -9 6 -40 3 -32 -3 -58 -11 -65 -21 -23 -30 -43 -105
-43 -161 0 -78 24 -141 76 -199 108 -120 277 -139 407 -45 116 84 156 237 97
372 -21 46 -24 48 -88 55 -37 5 -41 3 -26 -7 21 -16 11 -36 -15 -29 -10 3 -22
0 -25 -6 -9 -15 -36 -14 -36 1 0 6 3 8 7 5 3 -4 12 -2 20 4 7 6 22 9 33 6 11
-3 20 -1 20 4 0 5 -11 9 -25 9 -14 0 -25 4 -25 9 0 11 36 21 80 21 32 0 33 1
18 17 -15 14 -24 15 -63 6 -25 -6 -45 -7 -45 -2 0 4 14 10 30 14 17 4 30 11
30 16 0 12 -29 10 -56 -3z m-221 -109 c-7 -25 -20 -33 -29 -18 -5 8 -3 9 6 4
8 -5 11 -3 8 6 -3 8 -13 13 -22 13 -9 -1 -16 3 -16 10 0 6 -5 4 -10 -4 -5 -8
-10 -10 -10 -4 0 17 7 20 44 16 27 -3 33 -7 29 -23z m27 -3 c0 -3 -4 -8 -10
-11 -5 -3 -10 -1 -10 4 0 6 5 11 10 11 6 0 10 -2 10 -4z m-20 -61 c-24 -25
-46 -42 -49 -40 -3 3 15 25 39 50 24 25 46 42 49 40 3 -3 -15 -25 -39 -50z
m260 -39 c0 -6 -20 10 -45 34 -25 24 -45 49 -45 54 0 6 20 -10 45 -34 25 -24
45 -49 45 -54z m-299 -142 c12 -13 34 -28 50 -35 16 -6 28 -14 25 -16 -7 -8
-70 28 -88 51 -14 17 -17 39 -16 121 l2 100 3 -100 c3 -84 7 -103 24 -121z
m53 125 c-50 -91 -64 -111 -64 -90 0 14 102 182 107 177 2 -2 -17 -41 -43 -87z
m56 15 c-6 -27 -16 -57 -21 -66 -5 -10 -9 -30 -9 -45 0 -30 -15 -61 -24 -52
-4 3 8 54 25 113 33 109 49 138 29 50z m-163 -73 c-7 -60 7 -84 56 -102 28 -9
47 -25 61 -49 l20 -34 -24 17 c-14 10 -43 22 -65 28 -53 15 -90 42 -104 78
-11 25 -10 35 9 71 12 24 19 52 16 64 -5 19 -3 19 16 -4 16 -19 19 -34 15 -69z
m416 70 c-3 -10 2 -32 11 -49 18 -36 21 -75 6 -103 -12 -21 -68 -52 -115 -63
-16 -4 -38 -15 -47 -23 -25 -22 -23 -1 3 31 25 32 20 32 -34 4 -23 -12 -49
-21 -57 -19 -12 2 -12 0 -3 -10 10 -10 15 -10 27 0 15 12 36 8 36 -8 0 -4 -11
-13 -26 -19 -20 -10 -31 -9 -51 1 -23 13 -24 15 -9 30 15 15 15 17 -1 26 -10
6 -13 10 -8 10 6 0 18 -6 28 -13 16 -12 24 -11 62 10 24 14 60 27 81 29 55 8
64 19 64 88 0 42 5 66 17 79 20 23 22 23 16 -1z m-187 -282 c-16 -5 -49 -5
-73 -2 -39 5 -43 4 -37 -13 5 -15 4 -16 -4 -4 -18 24 -5 29 71 28 55 -1 65 -3
43 -9z m-56 -31 c0 -11 -12 -10 -30 2 -12 7 -10 9 8 7 12 0 22 -5 22 -9z m85
2 c-3 -5 -11 -10 -16 -10 -6 0 -7 5 -4 10 3 6 11 10 16 10 6 0 7 -4 4 -10z"/>
<path d="M740 995 c-19 -23 -8 -25 14 -4 11 11 15 19 9 19 -6 0 -16 -7 -23
-15z"/>
<path d="M1184 997 c-3 -8 -3 -43 -1 -78 l3 -64 4 75 4 75 6 -75 6 -75 2 72
c2 66 -11 104 -24 70z"/>
<path d="M1432 990 c0 -14 2 -19 5 -12 2 6 2 18 0 25 -3 6 -5 1 -5 -13z"/>
<path d="M1452 990 c0 -14 2 -19 5 -12 2 6 2 18 0 25 -3 6 -5 1 -5 -13z"/>
<path d="M1632 940 c-1 -41 -5 -86 -7 -100 l-6 -25 11 24 c6 14 9 59 7 100
l-3 76 -2 -75z"/>
<path d="M1864 996 c-3 -7 -3 -40 -1 -72 l3 -59 2 67 c1 42 7 68 15 71 9 4 9
6 -1 6 -7 1 -15 -5 -18 -13z"/>
<path d="M1933 930 c0 -47 2 -66 4 -42 2 23 2 61 0 85 -2 23 -4 4 -4 -43z"/>
<path d="M2062 985 c0 -16 2 -22 5 -12 2 9 2 23 0 30 -3 6 -5 -1 -5 -18z"/>
<path d="M2412 1004 c14 -4 18 -21 21 -97 l3 -92 0 95 c-1 87 -3 95 -21 97
-15 1 -16 1 -3 -3z"/>
<path d="M2601 994 c0 -11 3 -14 6 -6 3 7 2 16 -1 19 -3 4 -6 -2 -5 -13z"/>
<path d="M445 990 c4 -6 11 -8 16 -5 14 9 11 15 -7 15 -8 0 -12 -5 -9 -10z"/>
<path d="M1491 984 c0 -11 3 -14 6 -6 3 7 2 16 -1 19 -3 4 -6 -2 -5 -13z"/>
<path d="M1281 974 c0 -11 3 -14 6 -6 3 7 2 16 -1 19 -3 4 -6 -2 -5 -13z"/>
<path d="M1521 974 c0 -11 3 -14 6 -6 3 7 2 16 -1 19 -3 4 -6 -2 -5 -13z"/>
<path d="M1703 930 c0 -36 2 -50 4 -32 2 17 2 47 0 65 -2 17 -4 3 -4 -33z"/>
<path d="M65 969 c-4 -6 -5 -12 -2 -15 2 -3 7 2 10 11 7 17 1 20 -8 4z"/>
<path d="M184 964 c11 -8 25 -14 30 -13 6 0 5 3 -2 6 -6 2 -10 8 -8 12 3 4 -5
8 -17 8 -21 2 -22 1 -3 -13z"/>
<path d="M1361 964 c0 -11 3 -14 6 -6 3 7 2 16 -1 19 -3 4 -6 -2 -5 -13z"/>
<path d="M1392 960 c0 -14 2 -19 5 -12 2 6 2 18 0 25 -3 6 -5 1 -5 -13z"/>
<path d="M1601 964 c0 -11 3 -14 6 -6 3 7 2 16 -1 19 -3 4 -6 -2 -5 -13z"/>
<path d="M445 960 c-3 -5 1 -10 10 -10 9 0 13 5 10 10 -3 6 -8 10 -10 10 -2 0
-7 -4 -10 -10z"/>
<path d="M892 949 c-19 -15 -22 -24 -17 -49 4 -16 11 -32 16 -35 5 -4 4 6 -1
21 -9 23 -7 31 11 50 28 30 22 39 -9 13z"/>
<path d="M792 931 c-6 -17 -9 -31 -6 -31 7 0 25 52 20 57 -2 2 -8 -10 -14 -26z"/>
<path d="M1316 938 c-8 -31 -7 -38 2 -38 4 0 9 14 10 30 3 35 -3 39 -12 8z"/>
<path d="M1442 940 c0 -14 2 -19 5 -12 2 6 2 18 0 25 -3 6 -5 1 -5 -13z"/>
<path d="M1556 938 c-8 -31 -7 -38 2 -38 4 0 9 14 10 30 3 35 -3 39 -12 8z"/>
<path d="M2521 944 c0 -11 3 -14 6 -6 3 7 2 16 -1 19 -3 4 -6 -2 -5 -13z"/>
<path d="M2563 933 c1 -18 5 -33 9 -33 10 0 9 19 -2 45 -7 16 -9 14 -7 -12z"/>
<path d="M164 935 c11 -8 24 -15 30 -15 5 0 1 7 -10 15 -10 8 -23 14 -29 14
-5 0 -1 -6 9 -14z"/>
<path d="M2240 937 c0 -9 -10 -17 -22 -19 -18 -2 -23 -10 -24 -33 -2 -29 -2
-29 3 -2 3 19 10 27 24 27 20 0 37 25 25 37 -3 4 -6 -1 -6 -10z"/>
<path d="M2612 930 c0 -14 2 -19 5 -12 2 6 2 18 0 25 -3 6 -5 1 -5 -13z"/>
<path d="M1271 914 c0 -11 3 -14 6 -6 3 7 2 16 -1 19 -3 4 -6 -2 -5 -13z"/>
<path d="M1481 914 c0 -11 3 -14 6 -6 3 7 2 16 -1 19 -3 4 -6 -2 -5 -13z"/>
<path d="M1511 914 c0 -11 3 -14 6 -6 3 7 2 16 -1 19 -3 4 -6 -2 -5 -13z"/>
<path d="M2312 880 c0 -50 1 -52 8 -21 5 19 4 44 0 55 -6 15 -9 5 -8 -34z"/>
<path d="M140 900 c8 -5 22 -9 30 -9 10 0 8 3 -5 9 -27 12 -43 12 -25 0z"/>
<path d="M1371 894 c0 -11 3 -14 6 -6 3 7 2 16 -1 19 -3 4 -6 -2 -5 -13z"/>
<path d="M1401 894 c0 -11 3 -14 6 -6 3 7 2 16 -1 19 -3 4 -6 -2 -5 -13z"/>
<path d="M1611 894 c0 -11 3 -14 6 -6 3 7 2 16 -1 19 -3 4 -6 -2 -5 -13z"/>
<path d="M2063 865 c0 -27 2 -38 4 -22 2 15 2 37 0 50 -2 12 -4 0 -4 -28z"/>
<path d="M813 890 c-13 -5 -23 -12 -23 -15 0 -9 16 -5 36 10 22 16 19 18 -13
5z"/>
<path d="M2511 884 c0 -11 3 -14 6 -6 3 7 2 16 -1 19 -3 4 -6 -2 -5 -13z"/>
<path d="M124 881 c3 -5 16 -11 28 -14 22 -6 22 -5 4 8 -22 17 -40 20 -32 6z"/>
<path d="M2621 864 c0 -11 3 -14 6 -6 3 7 2 16 -1 19 -3 4 -6 -2 -5 -13z"/>
<path d="M1261 854 c0 -11 3 -14 6 -6 3 7 2 16 -1 19 -3 4 -6 -2 -5 -13z"/>
<path d="M1472 850 c0 -14 2 -19 5 -12 2 6 2 18 0 25 -3 6 -5 1 -5 -13z"/>
<path d="M1501 854 c0 -11 3 -14 6 -6 3 7 2 16 -1 19 -3 4 -6 -2 -5 -13z"/>
<path d="M824 845 c-10 -8 -14 -15 -8 -15 6 0 17 7 24 15 16 19 9 19 -16 0z"/>
<path d="M1302 840 c0 -14 2 -19 5 -12 2 6 2 18 0 25 -3 6 -5 1 -5 -13z"/>
<path d="M1542 840 c0 -14 2 -19 5 -12 2 6 2 18 0 25 -3 6 -5 1 -5 -13z"/>
<path d="M2252 840 c0 -14 2 -19 5 -12 2 6 2 18 0 25 -3 6 -5 1 -5 -13z"/>
<path d="M2742 840 c0 -14 2 -19 5 -12 2 6 2 18 0 25 -3 6 -5 1 -5 -13z"/>
<path d="M110 846 c0 -2 11 -6 25 -8 13 -3 22 -1 19 3 -5 9 -44 13 -44 5z"/>
<path d="M957 807 c5 -40 3 -43 -26 -54 -28 -10 -31 -15 -30 -50 l2 -38 10 37
c7 25 17 38 34 43 20 5 23 12 23 50 0 24 -4 46 -9 49 -5 3 -6 -13 -4 -37z"/>
<path d="M1381 834 c0 -11 3 -14 6 -6 3 7 2 16 -1 19 -3 4 -6 -2 -5 -13z"/>
<path d="M2581 834 c0 -11 3 -14 6 -6 3 7 2 16 -1 19 -3 4 -6 -2 -5 -13z"/>
<path d="M118 803 c6 -2 18 -2 25 0 6 3 1 5 -13 5 -14 0 -19 -2 -12 -5z"/>
<path d="M509 788 c-11 -20 -10 -21 3 -11 8 7 18 10 22 6 4 -4 4 0 0 10 -8 22
-11 22 -25 -5z"/>
<path d="M823 783 c9 -2 25 -2 35 0 9 3 1 5 -18 5 -19 0 -27 -2 -17 -5z"/>
<path d="M35 760 c3 -5 8 -10 11 -10 2 0 4 5 4 10 0 6 -5 10 -11 10 -5 0 -7
-4 -4 -10z"/>
<path d="M107 753 c-3 -5 5 -8 18 -8 13 0 21 3 18 8 -2 4 -10 7 -18 7 -8 0
-16 -3 -18 -7z"/>
<path d="M12 730 c0 -14 2 -19 5 -12 2 6 2 18 0 25 -3 6 -5 1 -5 -13z"/>
<path d="M833 723 c9 -2 23 -2 30 0 6 3 -1 5 -18 5 -16 0 -22 -2 -12 -5z"/>
<path d="M107 709 c8 -8 16 -8 30 0 16 9 14 10 -11 11 -22 0 -27 -3 -19 -11z"/>
<path d="M817 703 c-3 -5 6 -9 20 -10 19 -1 22 1 12 8 -17 11 -26 11 -32 2z"/>
<path d="M35 690 c3 -5 8 -10 11 -10 2 0 4 5 4 10 0 6 -5 10 -11 10 -5 0 -7
-4 -4 -10z"/>
<path d="M130 675 c-7 -8 -8 -15 -2 -15 5 0 15 7 22 15 7 8 8 15 2 15 -5 0
-15 -7 -22 -15z"/>
<path d="M1128 683 c7 -3 16 -2 19 1 4 3 -2 6 -13 5 -11 0 -14 -3 -6 -6z"/>
<path d="M2478 683 c7 -3 16 -2 19 1 4 3 -2 6 -13 5 -11 0 -14 -3 -6 -6z"/>
<path d="M1172 660 c7 -11 17 -20 22 -20 5 0 1 9 -9 20 -10 11 -20 20 -22 20
-2 0 2 -9 9 -20z"/>
<path d="M1539 675 c-3 -5 -3 -57 0 -115 l6 -105 53 -1 52 -1 -50 4 -49 4 -3
112 c-2 62 -6 108 -9 102z"/>
<path d="M1764 591 c1 -75 4 -95 16 -98 11 -3 12 -2 3 4 -7 5 -14 43 -16 98
l-3 90 0 -94z"/>
<path d="M1855 565 c0 -103 1 -110 20 -110 16 0 21 9 26 45 4 25 3 52 -2 60
-5 10 -9 -6 -9 -42 0 -44 -4 -58 -15 -58 -11 0 -15 21 -18 108 l-3 107 1 -110z"/>
<path d="M2030 571 c0 -106 -1 -110 -22 -114 -20 -4 -19 -4 5 -6 l27 -1 0 115
c0 63 -2 115 -5 115 -3 0 -5 -49 -5 -109z"/>
<path d="M2185 565 l0 -110 53 -3 c50 -3 52 -2 52 22 0 23 -4 26 -32 25 -31
-2 -31 -2 -5 -6 47 -7 33 -33 -18 -33 l-44 0 -4 108 -3 107 1 -110z"/>
<path d="M2282 660 c0 -14 2 -19 5 -12 2 6 2 18 0 25 -3 6 -5 1 -5 -13z"/>
<path d="M2521 663 c7 -12 15 -20 18 -17 3 2 -3 12 -13 22 -17 16 -18 16 -5
-5z"/>
<path d="M2555 565 c0 -107 1 -110 23 -111 18 -1 18 -1 2 3 -18 4 -20 14 -23
111 l-3 107 1 -110z"/>
<path d="M2612 660 c0 -14 2 -19 5 -12 2 6 2 18 0 25 -3 6 -5 1 -5 -13z"/>
<path d="M2724 661 c0 -11 4 -17 8 -15 4 3 8 12 8 20 0 8 -4 14 -8 14 -4 0 -8
-9 -8 -19z"/>
<path d="M21 654 c0 -11 3 -14 6 -6 3 7 2 16 -1 19 -3 4 -6 -2 -5 -13z"/>
<path d="M820 655 c-7 -8 -8 -15 -2 -15 5 0 15 7 22 15 7 8 8 15 2 15 -5 0
-15 -7 -22 -15z"/>
<path d="M1311 654 c0 -11 3 -14 6 -6 3 7 2 16 -1 19 -3 4 -6 -2 -5 -13z"/>
<path d="M1331 654 c0 -11 3 -14 6 -6 3 7 2 16 -1 19 -3 4 -6 -2 -5 -13z"/>
<path d="M2122 650 c0 -14 2 -19 5 -12 2 6 2 18 0 25 -3 6 -5 1 -5 -13z"/>
<path d="M1916 635 c8 -37 14 -45 14 -19 0 10 -5 26 -10 34 -8 11 -9 7 -4 -15z"/>
<path d="M2051 644 c0 -11 3 -14 6 -6 3 7 2 16 -1 19 -3 4 -6 -2 -5 -13z"/>
<path d="M2161 634 c0 -11 3 -14 6 -6 3 7 2 16 -1 19 -3 4 -6 -2 -5 -13z"/>
<path d="M2795 639 c-4 -6 -5 -12 -2 -15 2 -3 7 2 10 11 7 17 1 20 -8 4z"/>
<path d="M39 623 c-13 -16 -12 -17 4 -4 9 7 17 15 17 17 0 8 -8 3 -21 -13z"/>
<path d="M938 602 c-14 -35 -21 -41 -49 -44 -24 -2 -38 -11 -49 -30 -9 -18
-11 -30 -5 -35 6 -5 9 -7 8 -4 -1 2 4 16 13 32 12 23 21 29 48 29 30 0 36 4
46 35 17 51 7 65 -12 17z"/>
<path d="M1124 622 c2 -21 21 -19 23 3 l3 20 -9 -20 c-6 -16 -9 -17 -13 -5 -3
8 -4 9 -4 2z"/>
<path d="M1232 548 l-2 -98 28 1 c23 2 23 2 5 6 -21 4 -22 11 -26 96 l-3 92
-2 -97z"/>
<path d="M1452 548 l-2 -98 28 1 c23 2 23 2 5 6 -21 4 -22 11 -26 96 l-3 92
-2 -97z"/>
<path d="M2342 615 c0 -16 2 -22 5 -12 2 9 2 23 0 30 -3 6 -5 -1 -5 -18z"/>
<path d="M2474 622 c2 -21 21 -19 23 3 l3 20 -9 -20 c-6 -16 -9 -17 -13 -5 -3
8 -4 9 -4 2z"/>
<path d="M2692 553 c-2 -86 -3 -92 -24 -96 l-23 -4 23 -2 c30 -1 33 11 29 110
l-3 84 -2 -92z"/>
<path d="M804 615 c22 -17 40 -20 32 -6 -3 5 -16 11 -28 14 -22 6 -22 5 -4 -8z"/>
<path d="M1401 614 c0 -11 3 -14 6 -6 3 7 2 16 -1 19 -3 4 -6 -2 -5 -13z"/>
<path d="M146 605 c-11 -8 -17 -17 -14 -20 2 -3 13 4 23 15 21 23 18 25 -9 5z"/>
<path d="M2102 610 c0 -8 4 -26 8 -40 6 -20 8 -21 8 -5 0 11 -3 29 -8 40 -5
12 -8 14 -8 5z"/>
<path d="M60 603 c5 -2 8 -9 4 -14 -3 -5 0 -9 6 -9 15 0 7 23 -8 26 -7 1 -8 0
-2 -3z"/>
<path d="M1321 594 c0 -11 3 -14 6 -6 3 7 2 16 -1 19 -3 4 -6 -2 -5 -13z"/>
<path d="M171 579 c-7 -12 -10 -23 -8 -26 3 -3 11 5 17 17 15 28 8 35 -9 9z"/>
<path d="M1598 593 c6 -2 18 -2 25 0 6 3 1 5 -13 5 -14 0 -19 -2 -12 -5z"/>
<path d="M2247 594 c12 -3 24 -14 26 -25 4 -15 4 -14 3 3 -1 17 -8 23 -26 25
-21 1 -21 0 -3 -3z"/>
<path d="M770 580 c0 -9 39 -25 46 -18 2 3 -7 10 -21 16 -14 6 -25 7 -25 2z"/>
<path d="M1361 574 c0 -11 3 -14 6 -6 3 7 2 16 -1 19 -3 4 -6 -2 -5 -13z"/>
<path d="M2061 574 c0 -11 3 -14 6 -6 3 7 2 16 -1 19 -3 4 -6 -2 -5 -13z"/>
<path d="M1110 555 c13 -14 26 -25 28 -25 3 0 -5 11 -18 25 -13 14 -26 25 -28
25 -3 0 5 -11 18 -25z"/>
<path d="M2151 564 c0 -11 3 -14 6 -6 3 7 2 16 -1 19 -3 4 -6 -2 -5 -13z"/>
<path d="M2460 555 c13 -14 26 -25 28 -25 3 0 -5 11 -18 25 -13 14 -26 25 -28
25 -3 0 5 -11 18 -25z"/>
<path d="M1411 544 c0 -11 3 -14 6 -6 3 7 2 16 -1 19 -3 4 -6 -2 -5 -13z"/>
<path d="M1311 534 c0 -11 3 -14 6 -6 3 7 2 16 -1 19 -3 4 -6 -2 -5 -13z"/>
<path d="M2347 543 c-4 -3 -7 -23 -7 -44 0 -31 -4 -38 -22 -42 -20 -4 -19 -4
5 -6 26 -1 27 1 27 45 0 32 3 43 12 38 7 -4 8 -3 4 4 -8 14 -10 14 -19 5z"/>
<path d="M195 529 c-11 -17 -2 -18 19 -3 17 12 17 14 4 14 -9 0 -20 -5 -23
-11z"/>
<path d="M740 531 c0 -8 41 -23 47 -17 2 1 -8 8 -22 14 -14 6 -25 8 -25 3z"/>
<path d="M2072 510 c0 -14 2 -19 5 -12 2 6 2 18 0 25 -3 6 -5 1 -5 -13z"/>
<path d="M2411 498 c-1 -29 -5 -37 -23 -41 l-23 -4 23 -2 c26 -1 35 16 29 56
-3 24 -4 23 -6 -9z"/>
<path d="M214 498 l-19 -21 28 18 c28 18 33 25 19 25 -5 0 -17 -10 -28 -22z"/>
<path d="M1132 504 c-7 -8 -8 -14 -3 -14 10 0 25 19 20 25 -2 1 -10 -3 -17
-11z"/>
<path d="M2142 500 c0 -14 2 -19 5 -12 2 6 2 18 0 25 -3 6 -5 1 -5 -13z"/>
<path d="M2482 504 c-7 -8 -8 -14 -3 -14 10 0 25 19 20 25 -2 1 -10 -3 -17
-11z"/>
<path d="M1358 493 c7 -3 16 -2 19 1 4 3 -2 6 -13 5 -11 0 -14 -3 -6 -6z"/>
<path d="M1421 484 c0 -11 3 -14 6 -6 3 7 2 16 -1 19 -3 4 -6 -2 -5 -13z"/>
<path d="M1603 493 c9 -2 25 -2 35 0 9 3 1 5 -18 5 -19 0 -27 -2 -17 -5z"/>
<path d="M1080 481 c0 -10 29 -36 34 -30 1 2 -6 12 -16 22 -10 9 -18 13 -18 8z"/>
<path d="M1301 473 c-1 -18 4 -23 24 -23 14 0 25 4 25 9 0 5 -9 7 -19 4 -13
-3 -21 1 -24 14 -4 15 -5 14 -6 -4z"/>
<path d="M2430 481 c0 -10 29 -36 34 -30 1 2 -6 12 -16 22 -10 9 -18 13 -18 8z"/>
<path d="M1806 465 c-11 -8 -15 -15 -9 -15 6 0 16 7 23 15 16 19 11 19 -14 0z"/>
<path d="M140 455 c-15 -8 -19 -14 -10 -14 18 -1 46 16 40 23 -3 2 -16 -2 -30
-9z"/>
<path d="M1380 459 c0 -5 11 -9 25 -9 14 0 25 2 25 4 0 2 -11 6 -25 8 -14 3
-25 1 -25 -3z"/>
<path d="M1920 459 c0 -5 11 -9 25 -9 14 0 25 2 25 4 0 2 -11 6 -25 8 -14 3
-25 1 -25 -3z"/>
<path d="M832 421 c-18 -23 -29 -41 -24 -41 14 0 64 58 60 70 -2 6 -18 -7 -36
-29z"/>
<path d="M2093 453 c9 -2 25 -2 35 0 9 3 1 5 -18 5 -19 0 -27 -2 -17 -5z"/>
<path d="M2783 453 c9 -2 23 -2 30 0 6 3 -1 5 -18 5 -16 0 -22 -2 -12 -5z"/>
<path d="M345 420 c-4 -12 -5 -24 -2 -27 3 -2 8 5 12 17 4 12 5 24 2 27 -3 2
-8 -5 -12 -17z"/>
<path d="M366 415 c-9 -26 -7 -32 5 -12 6 10 9 21 6 23 -2 3 -7 -2 -11 -11z"/>
<path d="M717 402 c-24 -14 -28 -22 -24 -49 5 -29 2 -32 -41 -52 -53 -23 -31
-29 24 -6 32 13 35 18 29 44 -5 24 -1 32 22 49 35 26 27 36 -10 14z"/>
<path d="M407 389 c4 -13 8 -18 11 -10 2 7 -1 18 -6 23 -8 8 -9 4 -5 -13z"/>
<path d="M511 394 c0 -11 3 -14 6 -6 3 7 2 16 -1 19 -3 4 -6 -2 -5 -13z"/>
<path d="M300 335 c-16 -17 -19 -25 -9 -25 15 1 56 50 41 50 -5 0 -19 -11 -32
-25z"/>
<path d="M528 333 c-20 -3 -28 -12 -33 -33 -5 -24 -12 -30 -43 -33 -31 -4 -30
-4 8 -3 39 1 45 4 50 26 4 17 14 26 30 28 14 2 29 8 35 13 9 9 3 10 -47 2z"/>
</g>
</svg>
